<?xml version="1.0" encoding="utf-8"?>
<svg baseProfile="tiny-ps" version="1.2" viewBox="0 0 64 64" xmlns="http://www.w3.org/2000/svg">
  <title>MáximaBET</title>
  <!-- Generator: Adobe Illustrator 28.7.4, SVG Export Plug-In . SVG Version: 1.2.0 Build 166)  -->
  <g>
    <g id="Camada_1">
      <rect width="64" height="64" fill="#241a42" />
      <g>
        <path d="M43.3,13.08c-.95-.96-1.89-1.93-2.86-2.88-4.3-4.19-11-4.58-15.75-.9-1.53,1.19-2.77,2.7-4.16,4.04-.48.47-.47.47.16.7,3.73,1.37,5.99,4,6.66,7.94.35,2.09,0,4.16-.34,6.22-.76,4.44-1.53,8.87-2.3,13.31-.44,2.53-.88,5.06-1.32,7.59-.19,1.09-.81,1.59-1.9,1.59-.26,0-.52,0-.76,0-.04.2.07.24.14.31.93.94,1.85,1.88,2.79,2.8,4.67,4.57,12.15,4.56,16.81-.02.93-.91,1.84-1.84,2.75-2.77.07-.07.21-.13.13-.32h-.48c-1.45,0-2.9,0-4.36,0-.22,0-.43,0-.64-.08-.22-.07-.28-.17-.08-.34.43-.36.56-.85.65-1.37.09-.56.19-1.12.29-1.68.97-5.62,1.95-11.24,2.91-16.86.36-2.12.83-4.23.84-6.39.03-4.21-1.73-7.39-5.49-9.39-.09-.05-.19-.07-.26-.23,2.14-.98,4.41-1.12,6.7-.98.04-.18-.07-.23-.14-.3ZM40.41,24.01c-.08,2.18-.5,4.3-.87,6.44-1.05,6.13-2.12,12.26-3.18,18.38-.03.15-.05.3-.09.44-.2.89-.83,1.42-1.74,1.42-3,0-6.01,0-9.01,0-.08,0-.17,0-.25,0-.18-.03-.41-.02-.49-.19-.09-.19.16-.26.25-.38.22-.28.37-.59.43-.94.96-5.54,1.92-11.07,2.87-16.61.41-2.4.9-4.79,1.16-7.21.35-3.35-.36-6.37-2.76-8.86-.73-.75-1.57-1.34-2.49-1.83-.14-.07-.32-.09-.41-.31.92-.42,1.87-.7,2.86-.84,2.6-.37,5.17-.25,7.62.8,3.95,1.69,6.26,5.4,6.11,9.69Z" fill="#6ebb7b" />
        <path d="M14.88,19.71c-1.57,1.59-3.19,3.13-4.73,4.75-4.54,4.74-4.5,12.16.07,16.86.91.93,1.84,1.84,2.76,2.76.08.08.14.19.33.2.04-.23.09-.46.14-.7.7-3.97,1.4-7.94,2.08-11.92.39-2.28.89-4.55.94-6.88.03-1.75-.31-3.41-1.1-4.98-.14-.28-.24-.34-.49-.09Z" fill="#fff" />
        <path d="M53.83,24.42c-.09-.09-.14-.23-.25-.23-.65,6.92-2.3,13.67-3.3,20.62,1.25-1.25,2.45-2.4,3.61-3.6,4.49-4.66,4.46-12.15-.05-16.8Z" fill="#fff" />
      </g>
    </g>
  </g>
</svg>